<svg xmlns="http://www.w3.org/2000/svg" viewBox="0 0 32 32" width="32" height="32" shape-rendering="crispEdges">
  <rect width="32" height="32" fill="#0f172a"/>
  <rect x="0" y="0" width="32" height="2" fill="#f59e0b"/>
  <rect x="0" y="30" width="32" height="2" fill="#f59e0b"/>
  <rect x="0" y="0" width="2" height="32" fill="#f59e0b"/>
  <rect x="30" y="0" width="2" height="32" fill="#f59e0b"/>
  <!-- J -->
  <rect x="7"  y="11" width="2" height="2" fill="#f59e0b"/>
  <rect x="9"  y="11" width="2" height="2" fill="#f59e0b"/>
  <rect x="9"  y="13" width="2" height="2" fill="#f59e0b"/>
  <rect x="9"  y="15" width="2" height="2" fill="#f59e0b"/>
  <rect x="5"  y="17" width="2" height="2" fill="#f59e0b"/>
  <rect x="9"  y="17" width="2" height="2" fill="#f59e0b"/>
  <rect x="7"  y="19" width="2" height="2" fill="#f59e0b"/>
  <!-- D -->
  <rect x="13" y="11" width="2" height="2" fill="#f59e0b"/>
  <rect x="15" y="11" width="2" height="2" fill="#f59e0b"/>
  <rect x="13" y="13" width="2" height="2" fill="#f59e0b"/>
  <rect x="17" y="13" width="2" height="2" fill="#f59e0b"/>
  <rect x="13" y="15" width="2" height="2" fill="#f59e0b"/>
  <rect x="17" y="15" width="2" height="2" fill="#f59e0b"/>
  <rect x="13" y="17" width="2" height="2" fill="#f59e0b"/>
  <rect x="17" y="17" width="2" height="2" fill="#f59e0b"/>
  <rect x="13" y="19" width="2" height="2" fill="#f59e0b"/>
  <rect x="15" y="19" width="2" height="2" fill="#f59e0b"/>
  <!-- C -->
  <rect x="23" y="11" width="2" height="2" fill="#f59e0b"/>
  <rect x="25" y="11" width="2" height="2" fill="#f59e0b"/>
  <rect x="21" y="13" width="2" height="2" fill="#f59e0b"/>
  <rect x="21" y="15" width="2" height="2" fill="#f59e0b"/>
  <rect x="21" y="17" width="2" height="2" fill="#f59e0b"/>
  <rect x="23" y="19" width="2" height="2" fill="#f59e0b"/>
  <rect x="25" y="19" width="2" height="2" fill="#f59e0b"/>
</svg>
